<svg xmlns="http://www.w3.org/2000/svg" width="500" height="500" xmlns:xlink="http://www.w3.org/1999/xlink"><symbol id="a" viewBox="-250.5 -250.36 501 501"><path fill="none" stroke="#C8C8C8" stroke-width="10" stroke-miterlimit="10" d="M141.83 99.57c5.5 0 10 4.5 10 10v22.8c0 5.5-4.5 10-10 10H-141.4c-5.5 0-10-4.5-10-10v-22.8c0-5.5 4.5-10 10-10h283.23z" stroke-linecap="round" stroke-linejoin="round"/><path fill="#CC932F" d="M-135-200.64l135 30 135-30v308.48h-270zM122.53 107.84V70.38h-245.06v38.52"/><path fill="#EDAF35" d="M135.04-200.64v15.2L0-155.45l-135.04-30v-15.2L0-170.64zM-122.53-129.9L0-200.64l122.53 70.74V70.38h-245.06z"/><path fill="#231F20" d="M-122.53 39.7H-135v10.75h12.47zM135 39.7h-12.47v10.75H135zM-122.53-149.84l60.07-34.68 24.94 5.54-85 49.08v-19.94zm160.05-29.14l24.94-5.54 60.07 34.68v19.94l-85-49.08z" opacity=".25"/><path fill="#FFC364" d="M124.4-128.82L0-200.64l-124.4 71.82L0-204.74z"/><path fill="#EDAF35" d="M-122.53-129.9l43.44-26.58-26.9 26.9V70.37h-16.53V-129.9zM106 70.38v-201.72l-29.52-26.73 46.04 28.16V70.37H106z"/><g fill="#EDAF35"><path d="M-10.47 89.64L0 95.7l10.47-6.06V-194.6L0-200.64l-10.47 6.04zM40.47 89.64l10.47 6.05 10.47-6.06V-165.2l-10.46-6.03-10.47-6.05zM-61.4 89.64l10.46 6.05 10.47-6.06v-266.92l-10.47 6.05-10.47 6.04z"/></g><path fill="#CC932F" d="M124.4-129.9v34L0-24.08-124.4-95.9v-34L0-58.08z"/><path fill="#231F20" d="M-124.4-129.9L0-58.08l124.4-71.82L0-66.34z" opacity=".25"/><path fill="#fff" d="M-124.4-129.9L0-58.08l124.4-71.82L0-53.98z"/><path fill="#EDAF35" d="M-106-119.28v34l-8.5-4.9v-34.32m229.5.34v33.7l-9 5.2v-34"/><path fill="none" stroke="#231F20" stroke-width="10" stroke-miterlimit="10" d="M74.36 56.76s2.84 0 6.32 0 6.32 4.5 6.32 10v22.8c0 5.5-4.5 10-10 10H-76.57c-5.5 0-10-4.5-10-10v-22.8c0-5.5 2.8-10 6.2-10s6.18 0 6.18 0M75.56 142.38H43" stroke-linejoin="round" opacity=".25"/><path fill="none" stroke="#C8C8C8" stroke-width="10" stroke-miterlimit="10" d="M59.44 142.38v-22.8" stroke-linecap="round" stroke-linejoin="round"/><path fill="none" stroke="#C8C8C8" stroke-width="10" stroke-miterlimit="10" d="M59.44 142.38l-19.72 28.06 5.2 3 25.85-14.94z" stroke-linecap="round" stroke-linejoin="round"/><path fill="none" stroke="#231F20" stroke-width="10" stroke-miterlimit="10" d="M16.12 142.38h-32.57" stroke-linejoin="round" opacity=".25"/><path fill="none" stroke="#fff" stroke-width="10" stroke-miterlimit="10" d="M0 142.38v-22.8" stroke-linecap="round" stroke-linejoin="round"/><path fill="none" stroke="#fff" stroke-width="10" stroke-miterlimit="10" d="M0 142.38l-28.28 40.24L0 198.96l28.3-16.34z" stroke-linecap="round" stroke-linejoin="round"/><path fill="none" stroke="#231F20" stroke-width="10" stroke-miterlimit="10" d="M-43.32 142.38H-75.9" stroke-linejoin="round" opacity=".25"/><path fill="none" stroke="#C8C8C8" stroke-width="10" stroke-miterlimit="10" d="M-59.44 142.38v-22.8" stroke-linecap="round" stroke-linejoin="round"/><path fill="none" stroke="#C8C8C8" stroke-width="10" stroke-miterlimit="10" d="M-59.44 142.38l-11.33 16.12 25.86 14.93 5.18-3z" stroke-linecap="round" stroke-linejoin="round"/><path fill="none" stroke="#C8C8C8" stroke-width="10" stroke-miterlimit="10" d="M74.36 76.76s2.84 0 6.32 0 6.32 4.5 6.32 10v22.8c0 5.5-4.5 10-10 10H-76.57c-5.5 0-10-4.5-10-10v-22.8c0-5.5 2.8-10 6.2-10s6.18 0 6.18 0" stroke-linejoin="round"/><path fill="#EDAF35" d="M-106 68.4v39.44h-16.53v-39.5m245.06 0v39.5H106v-39.8" opacity=".25"/></symbol><symbol id="b" viewBox="-250.5 -250.5 501 501"><path d="M67.5-161.8V36.35h-135V-161.8L0-200.8z" opacity=".25"/><path d="M73.62-139.9v247.8H-73.62v-247.8L0-182.4z"/><path fill="#fff" d="M-.92 64.7L12.8 22.45h44.43L21.3-3.65 35-45.92-.92-19.8l-35.94-26.1 13.73 42.24-35.94 26.1h44.42zM-73.62-102.28L0-144.78l73.62 42.5v-10L0-154.78l-73.62 42.5zM-73.62-82.28L0-124.78l73.62 42.5v-10L0-134.78l-73.62 42.5zM-73.62-62.28L0-104.78l73.62 42.5v-10L0-114.78l-73.62 42.5zM38.98-92.28L0-69.78l-38.98-22.5v10L0-59.78l38.98-22.5z"/></symbol><symbol viewBox="-251.5 -251.36 503 503"><path fill="none" stroke="#231F20" stroke-width="3" stroke-miterlimit="10" d="M250-249.86h-500v500h500zM-250 250.14l500-500M250 250.14l-500-500"/><path fill="none" stroke="#f00" stroke-width="10" stroke-miterlimit="10" d="M-173.2 99.36L0 199.36l173.2-100v-200L0-200.64l-173.2 100z"/></symbol><g><g><use width="501" height="501" x="-250.5" y="-250.36" xlink:href="#a" transform="matrix(1 0 0 -1 256.5 252.334)" overflow="visible"/><use width="501" height="501" x="-250.5" y="-250.5" xlink:href="#b" transform="matrix(1 0 0 -1 256.5 251.334)" overflow="visible"/></g></g></svg>