<svg id="Layer_2" data-name="Layer 2" xmlns="http://www.w3.org/2000/svg" viewBox="0 0 512 512"><defs><style>.cls-1{fill:#0095dd;}.cls-2{fill:#e29f96;}.cls-3{fill:#f1d2ad;}.cls-4{fill:#fff;}</style></defs><title>Artboard 8</title><path class="cls-1" d="M449.79,318.62c0,107-86.75,193.78-193.81,193.78-5.8,0-11.56-.26-17.22-.79a.08.08,0,0,1-.11,0A193,193,0,0,1,119.24,455.9l-.28-.25a193.26,193.26,0,0,1-56.75-137c0-25.89,22.66-45.51,57-58.86a275,275,0,0,1,46.62-13.14c9.24-1.86,18.84-3.4,28.68-4.62a93.5,93.5,0,0,0,44.18,21.23h.08a94.29,94.29,0,0,0,72.86-16.61c2-1.47,3.94-3,5.8-4.62C390,251.06,449.79,276.59,449.79,318.62Z"/><path class="cls-1" d="M350.41,148.65a90.25,90.25,0,0,1-.62,10.83c-.19,1.71-.43,3.42-.76,5.09a94.44,94.44,0,0,0-186.06.09c-.34-1.71-.58-3.42-.77-5.18a92.34,92.34,0,0,1-.66-10.83,94.44,94.44,0,0,1,188.87,0Z"/><path class="cls-2" d="M349,164.57a84.85,84.85,0,0,1-3.18,13.12c-1,3.08-2.14,6.08-3.42,9-.48,1.14-1.05,2.28-1.57,3.37s-1.19,2.33-1.81,3.52c-1.23,2.28-2.57,4.51-4,6.7a94.52,94.52,0,0,1-12.31,15.11,94.3,94.3,0,0,1-133.5,0c-1.86-1.85-3.61-3.75-5.28-5.75-.85-1-1.66-2-2.47-3s-1.57-2.09-2.33-3.14-1.61-2.33-2.42-3.52c-.62-1-1.24-2-1.86-3a91.34,91.34,0,0,1-8.69-19.1c-.62-1.95-1.19-3.9-1.71-5.9-.57-2.37-1.1-4.8-1.52-7.27v-.05A94.44,94.44,0,0,1,349,164.57Z"/><path class="cls-3" d="M349,164.57a92.29,92.29,0,0,1-3.18,13.12c-1,3.08-2.14,6.08-3.42,9-.48,1.14-1.05,2.28-1.57,3.37s-1.14,2.33-1.81,3.52c-1.23,2.28-2.57,4.51-4,6.7a94.52,94.52,0,0,1-12.31,15.11,94.3,94.3,0,0,1-133.5,0c-1.86-1.85-3.61-3.75-5.28-5.75-.85-1-1.66-2-2.47-3s-1.57-2.09-2.33-3.14-1.61-2.33-2.42-3.52c-.62-1-1.24-2-1.86-3a91.34,91.34,0,0,1-8.69-19.1c-.62-1.95-1.19-3.9-1.71-5.9-.57-2.37-1.1-4.8-1.52-7.27v-.05A94.44,94.44,0,0,1,349,164.57Z"/><path class="cls-3" d="M317.45,242c3.14.38,6.23.81,9.32,1.28-1.29,1.47-2.62,2.95-4,4.33a94.32,94.32,0,0,1-133.51,0c-1.42-1.38-2.75-2.86-4-4.33,3.09-.47,6.23-.9,9.37-1.28a94.18,94.18,0,0,0,122.9,0Z"/><path class="cls-1" d="M416.75,142.07a25.56,25.56,0,0,1-25.55,25.58v8.25H357.76V105.34h5.56a109.49,109.49,0,0,0-214.64,0h5.56V175.9H146.5v20.62h85.38v17.93H128.57V175.9H120.8v-8.25a25.57,25.57,0,0,1,0-51.13V105.34h9.62C140.76,45.36,193.15-.4,256-.4S371.24,45.36,381.58,105.34h9.62v11.18A25.55,25.55,0,0,1,416.75,142.07Z"/><path class="cls-4" d="M256,205.48a9,9,0,0,1-9,9H231.88V196.52H247A9,9,0,0,1,256,205.48Z"/></svg>