<svg xmlns="http://www.w3.org/2000/svg" xmlns:xlink="http://www.w3.org/1999/xlink" viewBox="0 0 500 500" id="Layer_1"><style id="style2">.st0,.st3{fill:none;stroke-miterlimit:10}.st0{stroke-width:10;stroke-linecap:round;stroke-linejoin:round;stroke:#c8c8c8}.st3{stroke:#231f20;stroke-opacity:0}.st6{fill:#44ccc0}.st7{opacity:.25;fill:#231f20;enable-background:new}.st8{fill:#fff}.st9{fill:#c6fbfa}.st10{opacity:.25}.st11,.st12{stroke:#231f20;stroke-width:10;stroke-linejoin:round;fill:none;stroke-miterlimit:10}.st12{stroke-linecap:round;stroke:#fff}</style><symbol viewBox="-250.5 -250.5 501 501" id="League_x5F_Platinum"><path id="path4" d="M141.8 99.1c5.5 0 10 4.5 10 10v22.8c0 5.5-4.5 10-10 10h-283.2c-5.5 0-10-4.5-10-10v-22.8c0-5.5 4.5-10 10-10h283.2z" class="st0"/><path id="path6" d="M173.2-100.8L0-200.8l-173.2 100v200L0 199.2l173.2-100z" fill-opacity="0" fill="#44ccc0"/><path id="path8" d="M173.2 59.2v-160L0-200.8l-173.2 100v160m0 0h48.8m248.8 0h48.8" stroke-width="10" stroke-linecap="round" stroke-linejoin="round" stroke="#44ccc0" fill="none" stroke-miterlimit="10"/><path id="path10" d="M-92.7-174.3l46.4-30m91.1 0l44.8 30" class="st0"/><path id="path12" d="M250-250h-500v500h500z" class="st3"/><path id="path14" d="M-135-202.9L0-169.4l135-33.5v310.6h-270z" fill="#10827b"/><path id="path16" d="M122.5 107.7V70.2h-245v38.6" fill="#0f9190"/><path id="path18" d="M135-202.9v15.2l-135 30-135.1-30v-15.2L0-172.9z" class="st6"/><path id="path20" d="M135-172.5v15.2l-135 30-135.1-30v-15.2L0-142.5z" class="st6"/><path id="path22" d="M-122.5-130L0-200.8 122.5-130V70.2h-245z" class="st6"/><path id="path24" d="M-122.5 39.6H-135v10.7h12.5zm257.5 0h-12.5v10.7H135z" class="st7"/><path id="path26" d="M-10.5 85.3L0 91.4l10.5-6.1v-280L0-200.8l-10.5 6.1zm51 0l10.4 6.1 10.5-6.1v-250.6l-10.5-6.1-10.4-6zm50-15.1l10.4 6.1 10.5-6.1v-207.1l-10.5-6-10.4-6.1zM-61.4 85.3l10.5 6.1 10.4-6.1v-262.7l-10.4 6-10.5 6.1zm-50-15.1l10.5 6.1 10.4-6.1V-149l-10.4 6.1-10.5 6z" class="st6"/><path id="path28" d="M-122.5-150l60.1-34.7 24.9 5.5-85 49.1V-150zm160-29.1l24.9-5.5 60.1 34.7v19.9l-85-49.1z" class="st7"/><path id="path30" d="M-46.3-204.3v43m91.1 1.5v-44.5" class="st0"/><path id="path32" d="M-79-189l13.2 3.3 6.3-4.3-11-4.4zm156.3.5l-13.2 3.2-6.3-4.3 11-4.4z" class="st7"/><path id="path34" d="M43.3-158.8L-.9-133.3l-44.2-25.5" class="st0"/><path id="path36" d="M124.4-129L0-200.8-124.4-129 0-204.9z" class="st8"/><g id="g44"><path id="path38" d="M124.4-132.1v34L0-26.3l-124.4-71.8v-34L0-60.3z" class="st9"/><path id="path40" d="M-124.4-132.1L0-60.3l124.4-71.8L0-68.5z" class="st7"/><path id="path42" d="M-124.4-132.1L0-60.3l124.4-71.8L0-56.2z" class="st8"/></g><g id="g52"><path id="path46" d="M124.4-65.3v34L0 40.5l-124.4-71.8v-34L0 6.6z" class="st9"/><path id="path48" d="M-124.4-65.3L0 6.6l124.4-71.9L0-1.7z" class="st7"/><path id="path50" d="M-124.4-65.3L0 6.6l124.4-71.9L0 10.7z" class="st8"/></g><g id="g56"><path id="path54" d="M-114-49.3v34l-8.5-4.9v-34.3m245 .6v33.7l-9 5.2v-34M-114-115.9v34l-8.5-5v-34.3M-74-24.3v34l-8.5-4.9v-34.3m8.5-61.4V-57l-8.5-4.9v-34.3m205-24.3v33.6l-9 5.2v-34m-31 86.8V4.8l-9 5.2v-34m9-71.5v33.6l-9 5.2v-34" class="st6"/></g><g id="g76"><g id="g60" class="st10"><path id="path58" d="M74.4 56.2h6.3c3.5 0 6.3 4.5 6.3 10V89c0 5.5-4.5 10-10 10H-76.6c-5.5 0-10-4.5-10-10V66.2c0-5.5 2.8-10 6.2-10h6.2" class="st11"/></g><g id="g64" class="st10"><path id="path62" d="M44.5 141.9h-89.3" class="st11"/></g><path id="path66" d="M0 158.5v-39.4" class="st12"/><path id="path68" stroke-miterlimit="10" stroke-linejoin="round" stroke-width="10" stroke="#fff" fill="none" d="M74.4 76.2h6.3c3.5 0 6.3 4.5 6.3 10V109c0 5.5-4.5 10-10 10H-76.6c-5.5 0-10-4.5-10-10V86.2c0-5.5 2.8-10 6.2-10h6.2"/><path id="path70" d="M-51.4 164.7h-40m183.2 0h-40" class="st12"/><g id="g74"><path id="path72" d="M0 241.7l13.5-41.6h43.8l-35.4-25.7 13.5-41.7L0 158.5l-35.4-25.8 13.5 41.7-35.4 25.7h43.8z" class="st12"/></g></g><path id="path78" fill="#44ccc0" opacity=".25" d="M-106 68.3v39.4h-16.5V68.2m245 0v39.5H106V67.9"/></symbol><symbol viewBox="-250.5 -250.5 501 501" id="Position_x5F_1_3_"><path id="path81" d="M250-250h-500v500h500z" class="st3"/><path id="path83" d="M67.5-161.8V36.4h-135v-198.2l67.5-39z" opacity=".25"/><path id="path85" d="M73.6-139.9v247.8H-73.6v-247.8L0-182.4z"/><path id="path87" d="M-.9 64.7l13.7-42.2h44.4L21.3-3.7 35-45.9-.9-19.8l-36-26.1 13.8 42.2-36 26.2h44.5zm-72.7-167L0-144.8l73.6 42.5v-10L0-154.8l-73.6 42.5z" class="st8"/><path id="path89" d="M-73.6-82.3L0-124.8l73.6 42.5v-10L0-134.8l-73.6 42.5z" class="st8"/><path id="path91" d="M-73.6-62.3L0-104.8l73.6 42.5v-10L0-114.8l-73.6 42.5z" class="st8"/><path id="path93" d="M39-92.3L0-69.8l-39-22.5v10L0-59.8l39-22.5z" class="st8"/></symbol><g id="Compound"><g id="Rank_x5F_Platinum_x5F_2"><use overflow="visible" transform="matrix(1 0 0 -1 256.5 252.194)" y="-250.5" x="-250.5" id="XMLID_52_" height="501" width="501" xlink:href="#League_x5F_Platinum"/><use overflow="visible" transform="matrix(1 0 0 -1 256.5 251.975)" y="-250.5" x="-250.5" id="XMLID_38_" height="501" width="501" xlink:href="#Position_x5F_1_3_"/></g></g></svg>